HIERARCHY
ROOT Hips
{
	OFFSET 0.000000 0.000000 0.000000
	CHANNELS 6 Xposition Yposition Zposition Xrotation Yrotation Zrotation
	JOINT LeftUpLeg_virtual
	{
		OFFSET 0.000000 0.000000 0.000000
		CHANNELS 3 Xrotation Yrotation Zrotation
		JOINT LeftUpLeg
		{
			OFFSET 15.427100 -6.655098 0.678600
			CHANNELS 3 Xrotation Yrotation Zrotation
			JOINT LeftLeg
			{
				OFFSET 4.081073 -39.591068 13.024000
				CHANNELS 3 Xrotation Yrotation Zrotation
				JOINT LeftFoot
				{
					OFFSET -4.081074 -37.707932 -15.979700
					CHANNELS 3 Xrotation Yrotation Zrotation
					JOINT LeftToeBase
					{
						OFFSET 5.346399 -15.068900 20.645000
						CHANNELS 3 Xrotation Yrotation Zrotation
						JOINT LeftToe_End
						{
							OFFSET 2.754700 0.931300 11.300900
							CHANNELS 3 Xrotation Yrotation Zrotation
							End Site
							{
								OFFSET 0 0 0
							}
						}
					}
				}
			}
		}
	}
	JOINT RightUpLeg_virtual
	{
		OFFSET 0.000000 0.000000 0.000000
		CHANNELS 3 Xrotation Yrotation Zrotation
		JOINT RightUpLeg
		{
			OFFSET -15.569500 -6.655098 0.678600
			CHANNELS 3 Xrotation Yrotation Zrotation
			JOINT RightLeg
			{
				OFFSET -4.081825 -39.591045 13.023800
				CHANNELS 3 Xrotation Yrotation Zrotation
				JOINT RightFoot
				{
					OFFSET 4.081824 -37.707954 -15.979600
					CHANNELS 3 Xrotation Yrotation Zrotation
					JOINT RightToeBase
					{
						OFFSET -5.346400 -15.068900 20.645000
						CHANNELS 3 Xrotation Yrotation Zrotation
						JOINT RightToe_End
						{
							OFFSET -2.754700 0.931300 11.300900
							CHANNELS 3 Xrotation Yrotation Zrotation
							End Site
							{
								OFFSET 0 0 0
							}
						}
					}
				}
			}
		}
	}
	JOINT Spine_virtual
	{
		OFFSET 0.000000 0.000000 0.000000
		CHANNELS 3 Xrotation Yrotation Zrotation
		JOINT Spine
		{
			OFFSET -0.279200 12.230698 -2.892100
			CHANNELS 3 Xrotation Yrotation Zrotation
			JOINT Spine1
			{
				OFFSET -0.232667 10.192268 -1.242267
				CHANNELS 3 Xrotation Yrotation Zrotation
				JOINT Spine1_split
				{
					OFFSET -0.232667 10.192268 -1.242267
					CHANNELS 3 Xrotation Yrotation Zrotation
					JOINT Spine2
					{
						OFFSET -0.232667 10.192268 -1.242267
						CHANNELS 3 Xrotation Yrotation Zrotation
						JOINT Neck_virtual
						{
							OFFSET 0.000000 0.000000 0.000000
							CHANNELS 3 Xrotation Yrotation Zrotation
							JOINT Neck
							{
								OFFSET -0.418800 17.814194 8.416900
								CHANNELS 3 Xrotation Yrotation Zrotation
								JOINT Head
								{
									OFFSET 0.000000 7.031097 3.806800
									CHANNELS 3 Xrotation Yrotation Zrotation
									JOINT HeadTop_End
									{
										OFFSET 0.000000 24.646606 12.978600
										CHANNELS 3 Xrotation Yrotation Zrotation
										End Site
										{
											OFFSET 0 0 0
										}
									}
								}
							}
						}
						JOINT LeftShoulder_virtual
						{
							OFFSET 0.000000 0.000000 0.000000
							CHANNELS 3 Xrotation Yrotation Zrotation
							JOINT LeftShoulder
							{
								OFFSET 8.476499 7.247704 -3.868750
								CHANNELS 3 Xrotation Yrotation Zrotation
								JOINT LeftShoulder_split
								{
									OFFSET 8.476499 7.247704 -3.868750
									CHANNELS 3 Xrotation Yrotation Zrotation
									JOINT LeftArm
									{
										OFFSET 9.308998 -2.777710 0.208600
										CHANNELS 3 Xrotation Yrotation Zrotation
										JOINT LeftForeArm
										{
											OFFSET 29.972298 0.000000 0.000000
											CHANNELS 3 Xrotation Yrotation Zrotation
											JOINT LeftHand
											{
												OFFSET 26.026505 0.000000 0.000000
												CHANNELS 3 Xrotation Yrotation Zrotation
												End Site
												{
													OFFSET 0 0 0
												}
											}
										}
									}
								}
							}
						}
						JOINT RightShoulder_virtual
						{
							OFFSET 0.000000 0.000000 0.000000
							CHANNELS 3 Xrotation Yrotation Zrotation
							JOINT RightShoulder
							{
								OFFSET -7.570500 7.247704 -3.868750
								CHANNELS 3 Xrotation Yrotation Zrotation
								JOINT RightShoulder_split
								{
									OFFSET -7.570500 7.247704 -3.868750
									CHANNELS 3 Xrotation Yrotation Zrotation
									JOINT RightArm
									{
										OFFSET -9.308998 -2.777710 0.208500
										CHANNELS 3 Xrotation Yrotation Zrotation
										JOINT RightForeArm
										{
											OFFSET -29.972300 0.000000 0.000000
											CHANNELS 3 Xrotation Yrotation Zrotation
											JOINT RightHand
											{
												OFFSET -26.026505 0.000000 0.000000
												CHANNELS 3 Xrotation Yrotation Zrotation
												End Site
												{
													OFFSET 0 0 0
												}
											}
										}
									}
								}
							}
						}
					}
				}
			}
		}
	}
}
MOTION
Frames: 11
Frame Time: 0.03333333
6.958954 49.117302 16.965822 0.000000 0.000000 0.000000 2.062096 12.922114 1.113058 -85.231670 -17.071675 11.919469 75.773483 -2.599384 -0.058761 14.083795 -7.168196 -15.641762 -5.417330 -0.285464 -4.733523 0.000000 0.000000 0.000000 1.358424 14.570831 1.259454 -84.752764 16.159326 -13.845244 79.067786 3.148625 0.741935 12.678714 -5.235814 20.963488 1.171607 0.050871 -4.449932 0.000000 0.000000 0.000000 1.975319 17.568464 0.776491 9.186273 -0.505724 0.830840 0.142258 -2.770541 1.036090 0.269199 -0.562577 0.059069 0.000000 0.000000 0.000000 -1.008054 0.205206 1.436483 1.623844 5.702542 -0.309215 -17.268996 -31.115104 -23.422945 0.000000 0.000000 0.000000 -2.768397 -2.159430 0.165987 2.439820 -20.294971 -7.598554 -0.347735 0.292768 -2.674647 -6.838936 -8.379489 -65.959601 -3.473164 -56.141939 2.156270 0.000000 0.000000 0.000000 -1.350874 -1.508064 1.600781 0.398811 -3.808428 11.099570 -0.006782 1.406176 -1.101945 0.955181 39.038015 63.567218 -12.458249 50.194992 10.136634 0.000000 0.000000 0.000000 
6.980519 49.238869 16.965858 0.000000 0.000000 0.000000 2.294093 12.866345 1.072111 -85.524234 -17.302327 11.873241 75.611007 -2.629242 -0.071241 14.529371 -7.283598 -15.691076 -5.293228 -0.261011 -4.796934 0.000000 0.000000 0.000000 1.565174 14.538759 1.278214 -84.683240 15.948618 -13.851727 78.647511 3.045737 0.847253 12.929262 -5.479712 20.808803 1.485000 0.068750 -4.368799 0.000000 0.000000 0.000000 2.113116 17.326867 0.727607 9.134267 -0.498534 0.732268 0.229471 -2.759657 0.928592 0.332425 -0.451024 0.034344 0.000000 0.000000 0.000000 -0.808134 0.178247 1.426082 1.282119 5.914660 -0.143235 -16.006072 -31.049418 -23.308487 0.000000 0.000000 0.000000 -2.726489 -2.116886 0.161274 2.442485 -20.008809 -7.437127 -0.164407 0.005179 -2.499563 -6.988546 -8.450108 -66.224544 -3.133812 -55.753110 2.123968 0.000000 0.000000 0.000000 -1.255312 -1.528605 1.508425 0.427717 -3.706935 10.815301 0.172470 1.844459 -0.815967 0.650786 39.276275 64.054340 -12.136655 48.841125 9.761284 0.000000 0.000000 0.000000 
6.964489 49.424767 16.944494 0.000000 0.000000 0.000000 2.530870 12.642006 1.058362 -85.777983 -17.505802 11.775107 75.274845 -2.444762 -0.128475 14.899856 -7.085317 -15.366290 -5.196887 -0.204225 -4.885589 0.000000 0.000000 0.000000 1.688395 14.169234 1.348479 -84.710294 15.706479 -13.890858 78.360998 3.110541 0.855867 13.339318 -5.736131 21.232254 0.980286 0.140518 -4.659709 0.000000 0.000000 0.000000 2.235209 16.747426 0.711661 9.273388 -0.345054 0.436054 0.532365 -2.752913 0.800101 0.309228 -0.386581 0.020350 0.000000 0.000000 0.000000 -0.446760 0.187509 1.321335 1.210524 6.183237 0.383655 -14.155887 -30.465601 -22.339126 0.000000 0.000000 0.000000 -2.414230 -2.076808 0.104970 2.552359 -19.356167 -6.709237 0.215143 -0.150683 -1.947105 -7.810816 -8.566074 -67.325687 -2.564573 -55.218821 2.128602 0.000000 0.000000 0.000000 -0.963503 -1.533701 1.339644 0.483160 -3.714689 9.906611 0.380989 1.931332 -0.116260 -0.560838 39.452935 65.479596 -12.152614 47.427334 9.679217 0.000000 0.000000 0.000000 
6.902798 49.621231 16.892672 0.000000 0.000000 0.000000 2.741625 12.287065 1.078762 -85.922059 -17.600153 11.626094 74.876891 -2.043589 -0.230399 15.042655 -6.594230 -14.712677 -4.792442 -0.134876 -5.069412 0.000000 0.000000 0.000000 1.776546 13.637553 1.465548 -84.710964 15.561538 -13.896818 78.101014 3.242828 0.765559 13.501321 -6.132868 21.894663 0.328157 0.247891 -5.262295 0.000000 0.000000 0.000000 2.359112 16.003697 0.745574 9.579649 -0.077528 0.010345 1.037817 -2.741729 0.681402 0.224049 -0.365176 0.011843 0.000000 0.000000 0.000000 0.068962 0.240946 1.144395 1.407001 6.504016 1.085780 -12.223972 -29.299917 -20.866535 0.000000 0.000000 0.000000 -1.877290 -2.022376 0.028137 2.738920 -18.388042 -5.540537 0.488559 -0.274867 -1.124427 -9.164772 -8.898598 -68.887683 -1.977975 -54.643815 2.000649 0.000000 0.000000 0.000000 -0.509881 -1.529054 1.129827 0.588805 -3.903263 8.484400 0.686660 1.521401 0.622102 -2.478887 39.386248 67.619050 -12.563616 46.308799 9.933021 0.000000 0.000000 0.000000 
6.806278 49.777847 16.810688 0.000000 0.000000 0.000000 2.934762 11.884061 1.149801 -86.024750 -17.572216 11.474339 74.564089 -1.622505 -0.326593 15.035430 -6.070415 -14.077927 -3.965343 -0.085622 -5.248777 0.000000 0.000000 0.000000 1.912492 13.177185 1.596941 -84.578642 15.560329 -13.832783 77.781935 3.285249 0.653886 13.208197 -6.857340 22.342304 0.571992 0.361886 -6.073453 0.000000 0.000000 0.000000 2.504376 15.307501 0.820685 10.039934 0.219173 -0.479851 1.699377 -2.726497 0.597268 0.137260 -0.398261 0.027938 0.000000 0.000000 0.000000 0.720397 0.320063 0.941190 1.740190 6.843384 1.757087 -10.743777 -27.550943 -19.359124 0.000000 0.000000 0.000000 -1.152373 -1.953600 -0.044019 2.957878 -17.246144 -4.146669 0.609240 -0.380749 -0.451855 -10.757175 -9.515811 -70.456857 -1.616707 -54.239318 1.556611 0.000000 0.000000 0.000000 0.081268 -1.516494 0.929936 0.737350 -4.212414 6.708216 1.058167 0.866636 1.238719 -4.695134 38.837333 70.215103 -13.321891 45.691288 10.481824 0.000000 0.000000 0.000000 
6.658078 49.844303 16.694672 0.000000 0.000000 0.000000 3.187518 11.545273 1.264314 -86.072289 -17.429920 11.330334 74.337395 -1.358573 -0.393950 14.946827 -5.753030 -13.642597 -3.169601 -0.087146 -5.128266 0.000000 0.000000 0.000000 2.145292 13.008308 1.724601 -84.370588 15.758341 -13.689139 77.377253 3.229539 0.587005 12.679656 -7.834565 22.522870 1.819161 0.459095 -7.035323 0.000000 0.000000 0.000000 2.671098 14.811274 0.903148 10.607082 0.467452 -0.948387 2.462819 -2.712024 0.570202 0.084239 -0.433809 0.054909 0.000000 0.000000 0.000000 1.468345 0.409630 0.758367 2.076354 7.211918 2.199055 -10.009635 -25.386019 -18.192984 0.000000 0.000000 0.000000 -0.304495 -1.885001 -0.096852 3.159553 -16.081697 -2.784709 0.715426 -0.425842 -0.092984 -12.195588 -10.214595 -71.692234 -1.550330 -54.082128 0.755548 0.000000 0.000000 0.000000 0.756584 -1.486403 0.777539 0.900444 -4.558841 4.803170 1.579471 0.352960 1.690275 -6.917101 37.778828 72.990994 -14.368580 45.605539 11.274009 0.000000 0.000000 0.000000 
6.474524 49.836052 16.494389 0.000000 0.000000 0.000000 3.587584 11.310122 1.402955 -86.068751 -17.174541 11.262576 74.165623 -1.349672 -0.435469 14.787819 -5.768072 -13.484841 -2.737746 -0.127007 -4.601248 0.000000 0.000000 0.000000 2.540315 13.174080 1.812304 -84.246989 16.174042 -13.458615 77.002508 3.269084 0.481244 12.342430 -8.722222 22.811623 3.222555 0.567227 -8.137048 0.000000 0.000000 0.000000 2.970499 14.526426 0.971082 11.215761 0.601073 -1.346493 3.250222 -2.708964 0.598624 0.081474 -0.462042 0.065698 0.000000 0.000000 0.000000 2.245177 0.493137 0.622848 2.289214 7.577238 2.292074 -9.977292 -23.122595 -17.503297 0.000000 0.000000 0.000000 0.578868 -1.847225 -0.130760 3.293436 -15.118699 -1.726246 0.857723 -0.352025 0.293292 -13.217840 -10.762799 -72.485902 -1.661213 -54.296883 -0.251687 0.000000 0.000000 0.000000 1.458541 -1.432569 0.712197 1.052065 -4.839319 3.001310 2.029643 0.082741 1.991897 -8.901377 36.286370 75.604935 -15.610676 45.865233 12.222682 0.000000 0.000000 0.000000 
6.322474 49.807281 16.296654 0.000000 0.000000 0.000000 4.207589 11.184546 1.526842 -86.109383 -16.837748 11.338224 74.074433 -1.573072 -0.528078 14.506255 -6.028137 -13.526721 -2.555355 -0.185432 -3.860709 0.000000 0.000000 0.000000 3.133714 13.411617 1.847052 -84.324928 16.689709 -13.170310 76.782569 3.516213 0.243412 12.328491 -9.311513 23.422476 4.140543 0.709108 -9.336698 0.000000 0.000000 0.000000 3.472577 14.387061 1.016666 11.843914 0.574364 -1.665553 3.957341 -2.714333 0.665579 0.130025 -0.498782 0.066779 0.000000 0.000000 0.000000 2.946683 0.570548 0.549041 2.272086 7.927559 2.045599 -10.476547 -21.244578 -17.258310 0.000000 0.000000 0.000000 1.426118 -1.848939 -0.141814 3.346328 -14.552454 -1.053468 1.040085 -0.070108 0.628248 -13.624341 -10.789591 -72.769334 -1.930002 -55.046827 -1.381933 0.000000 0.000000 0.000000 2.135189 -1.351557 0.749746 1.141668 -4.975144 1.494255 2.102859 -0.021855 2.295887 -10.315747 34.615085 77.735599 -16.883280 46.222025 13.178298 0.000000 0.000000 0.000000 
6.177776 49.807205 16.180887 0.000000 0.000000 0.000000 5.078010 11.064229 1.592180 -86.247599 -16.406096 11.649309 74.149135 -1.910530 -0.744957 14.063675 -6.324518 -13.611895 -2.302702 -0.243922 -3.213792 0.000000 0.000000 0.000000 3.942543 13.465496 1.841230 -84.642306 17.146432 -12.846303 76.870897 3.918839 -0.142495 12.262746 -9.685161 24.050418 4.859161 0.854175 -10.516936 0.000000 0.000000 0.000000 4.256784 14.197020 1.009688 12.431685 0.410092 -1.932308 4.510062 -2.704175 0.754002 0.172069 -0.493761 0.059330 0.000000 0.000000 0.000000 3.466975 0.640445 0.527942 2.068892 8.279472 1.626302 -11.317622 -20.205243 -17.288708 0.000000 0.000000 0.000000 2.143885 -1.888719 -0.135137 3.332424 -14.469973 -0.737857 1.121069 0.589158 0.855105 -13.623030 -10.132183 -72.680221 -2.270315 -56.285465 -2.560612 0.000000 0.000000 0.000000 2.679013 -1.250861 0.861145 1.132386 -4.963522 0.455538 1.877319 -0.274933 2.727681 -10.955027 33.128347 79.026518 -18.138971 46.624254 14.130334 0.000000 0.000000 0.000000 
6.044955 49.853207 16.326023 0.000000 0.000000 0.000000 6.167639 10.934202 1.614358 -86.561836 -15.882222 12.237882 74.514502 -2.279846 -1.057045 13.383469 -6.500734 -13.668416 -1.873751 -0.281257 -2.842806 0.000000 0.000000 0.000000 4.985092 13.277238 1.815139 -85.148287 17.406797 -12.524816 77.377615 4.366770 -0.628562 11.581270 -10.020410 24.298572 5.736334 0.964750 -11.531259 0.000000 0.000000 0.000000 5.432715 13.946165 0.905719 12.927340 0.131229 -2.220436 4.850685 -2.693205 0.837419 0.168818 -0.481659 0.060259 0.000000 0.000000 0.000000 3.753052 0.708452 0.538902 1.766760 8.642632 1.278590 -12.377781 -20.210272 -17.369487 0.000000 0.000000 0.000000 2.651229 -1.944472 -0.113260 3.270446 -14.848415 -0.632428 1.122031 1.364139 1.004529 -13.198491 -8.898830 -72.451013 -2.727149 -58.118080 -3.812711 0.000000 0.000000 0.000000 2.992555 -1.164000 1.007163 1.040882 -4.764350 -0.006556 1.262440 -0.696728 3.081470 -10.500421 32.050786 79.243117 -19.393602 47.222405 15.156386 0.000000 0.000000 0.000000 
5.921985 50.008469 16.808851 0.000000 0.000000 0.000000 7.510732 10.834620 1.590271 -86.938835 -15.192280 13.156987 75.105532 -2.589142 -1.468924 12.324793 -6.452503 -13.567968 -1.497602 -0.312563 -2.729145 0.000000 0.000000 0.000000 6.272462 12.780170 1.781924 -85.685584 17.442944 -12.306241 78.368744 4.750991 -1.157043 10.102253 -10.445979 24.055139 6.619944 1.038628 -12.314037 0.000000 0.000000 0.000000 6.949522 13.697199 0.696909 13.300799 -0.210818 -2.568706 4.985814 -2.656858 0.889790 0.149210 -0.501226 0.062608 0.000000 0.000000 0.000000 3.797449 0.794664 0.571757 1.401500 9.059716 1.200472 -13.632840 -20.986627 -17.508032 0.000000 0.000000 0.000000 2.848947 -1.963753 -0.095079 3.182245 -15.628337 -0.538984 1.090668 2.072092 0.962301 -12.460563 -7.241170 -72.205085 -3.856856 -60.396863 -5.631848 0.000000 0.000000 0.000000 3.024596 -1.089248 1.150898 0.892646 -4.338278 0.199008 0.634649 -1.213217 3.055885 -8.911257 31.361524 78.476743 -20.673927 48.274916 16.373369 0.000000 0.000000 0.000000 
